<?xml version="1.0" encoding="UTF-8"?><svg xmlns="http://www.w3.org/2000/svg" viewBox="0 0 171.4 185.09"><defs><style>.d{fill:#008060;}</style></defs><g id="a"/><g id="b"><g id="c"><g><path class="d" d="M58.22,76.85c3.44,1.52,3.63,2.96,3.62,6.19-.02,5.84-1.69,10.19-6.35,14.02-4.52,3.71-5.37,10.69-2.77,15.02,5.39-3.9,10.69-7.89,16.16-11.62,2.56-1.74,3.79-4.03,4.36-6.91,1.33-6.75,2.88-13.45,3.98-20.24,.34-2.07,.05-4.64-.94-6.44-2.46-4.49-5.2-8.9-8.34-12.94,1.31-3.58,3.31-7.52,5.17-10.2,6.14-8.87,15.4-13.3,27.78-13.3,11.38,0,19.86,2.62,25.43,7.86,4.2,3.95,7.08,9.73,8.62,17.32,.95,4.65,5.04,7.98,9.79,7.98h16.68c6.49,0,11.21-6.07,9.72-12.39-3.37-14.27-10.03-25.77-20-34.5C138.43,5.57,121.68,0,100.9,0c-15.01,0-28.19,3.53-39.53,10.58-11.34,7.05-20.06,17.18-26.17,30.37-.59,1.29-1.95,4.62-2.48,5.94,4.72,6.77,9.91,15.02,14.98,21.57,2.79,3.6,6.37,6.54,10.53,8.39Z"/><path class="d" d="M30.56,102.05c-1.82-.16-4.12-1.12-5.36-.35-5.15,3.21-10.1,6.79-14.81,10.61-.88,.71-.82,3.36-.29,4.79,.47,1.28,2.18,2.11,3.15,2.96,1.22-.34,1.99-.33,2.44-.71,4.67-3.92,9.44-7.73,13.81-11.97,1.07-1.04,.75-3.51,1.07-5.33Z"/><path class="d" d="M20.54,97.78c1.5-2.31,.47-3.71-2.81-3.64-.55,.16-1.77,.21-2.6,.8-3.99,2.84-8.02,5.66-11.69,8.88-.79,.7-.67,3.3-.04,4.55,.89,1.75,2.86,1.88,4.52,.62,2.69-2.05,5.37-4.11,7.92-6.32,1.71-1.48,3.48-3.03,4.69-4.89Z"/><path class="d" d="M33.61,116.04c1.56-1.67,.54-3.21-2.25-3.1-4.24,1.61-7.91,4.97-11.29,8.62-.45,.48,.1,2.32,.69,3.19,.38,.56,2.09,.96,2.52,.61,3.57-2.97,7.18-5.93,10.33-9.32Z"/><path class="d" d="M11.12,92.8c.69-.59,.84-1.82,1.24-2.76-1.1-.15-2.52-.81-3.25-.35-3.04,1.89-5.91,4.05-8.72,6.28-.44,.35-.49,1.6-.26,2.28,.19,.57,1.05,.92,1.62,1.37,.67-.34,1.2-.52,1.62-.84,2.61-1.96,5.27-3.86,7.75-5.97Z"/><path class="d" d="M7.14,86.04c-1.63-2.75-3.16-5.33-4.98-8.41-3.11,4.5-.3,7.69,.98,11.36,1.38-1.01,2.58-1.9,4-2.95Z"/><path class="d" d="M126.08,146.92c-5.65,5.24-14.21,7.86-25.67,7.86-12.7,0-22-4.49-27.9-13.49-2.03-3.09-3.7-6.81-5.02-11.13h-.23c-1.21-4.07-1.42-5.13-1.83-6.93-1.55-6.77-1.53-10.18-1.92-15.84-3.63,2.68-4.95,5.38-8.43,7.74-2.51,1.69-5.49,.71-6.41-2.17-.86-2.68-1.08-5.74-.84-8.57,.38-4.55,2.93-8.3,6.3-11.16,3.21-2.72,3.81-6.16,3.89-9.87,.02-.99-.68-2.2-1.56-2.66-7.69-4.09-13.15-10.41-17.77-17.55-2.97-4.59-5.7-9.32-8.55-13.98-.57-.93-1.1-1.93-1.88-2.67-1.85-1.74-4-2.3-6.23-.69-2.4,1.74-2.92,4.74-1.62,7.08,3.39,6.11,6.74,12.25,9.91,18.48,.5,.98,.42,3.22-.19,3.6-1.89,1.18-2.49-.71-3.21-2.06-3.14-5.88-6.22-11.79-9.49-17.59-1.32-2.34-3.99-2.68-5.9-.79-2.24,2.22-2.77,4.85-1.27,7.65,1.76,3.27,3.61,6.5,5.42,9.74,1.23,2.19,2.61,4.32,3.62,6.61,.37,.85-.11,2.08-.2,3.13-1.04-.47-2.51-.66-3.04-1.46-1.8-2.73-3.26-5.68-4.87-8.54-1.22-2.16-2.48-4.31-3.72-6.47-4.26,2.85-4.99,6.25-2.47,10.11,1.73,2.65,3.31,5.41,5.02,8.07,.48,.74,1.43,1.81,2.12,2.35,1.68,1.31,3.45,2.53,5.18,3.78,5.77,.89,6.96,1.88,8.08,7.72,7.25-1.29,11.66,3.64,8.3,11.54,5.78,3.44,6.02,7.04,.78,12.56-1.15,1.21-2.48,2.25-3.83,3.24-1.65,1.19-1.64,2.1-.85,4.11h-.3c3.22,13,8.68,24.04,16.41,33.11,13.24,15.55,31.4,23.32,54.5,23.32,21.11,0,38.13-5.57,51.04-16.7,10.05-8.67,16.62-19.85,19.69-33.52,1.41-6.27-3.32-12.25-9.75-12.25h-16.94c-4.72,0-8.77,3.31-9.78,7.92-1.54,7.04-4.4,12.5-8.59,16.39Z"/></g></g></g></svg>